<svg width="38" height="26" viewBox="0 0 38 26" fill="none" xmlns="http://www.w3.org/2000/svg">
<path d="M27.2116 25.2701C33.0889 25.2701 37.8534 19.6132 37.8534 12.6351C37.8534 5.65691 33.0889 0 27.2116 0C21.3343 0 16.5698 5.65691 16.5698 12.6351C16.5698 14.6917 16.9837 16.6335 17.7179 18.3496C17.97 18.9388 18.7668 18.9671 19.0288 18.3822C19.5349 17.2525 19.9967 16.0509 20.1593 14.8092C20.2172 14.3671 20.5773 14.0088 21.0233 14.0088C21.5352 14.0088 21.919 13.5428 21.8924 13.0315C21.8856 12.9004 21.8821 12.7682 21.8821 12.6351C21.8821 9.14032 24.2682 6.30728 27.2116 6.30728C30.155 6.30728 32.5412 9.14032 32.5412 12.6351C32.5412 16.1298 30.155 18.9628 27.2116 18.9628C27.0206 18.9628 26.8724 18.9603 26.7492 18.9516C26.1115 18.9064 25.4291 19.0209 25.1561 19.599C24.6192 20.736 24.0505 21.7404 23.3341 23.0062C23.0665 23.4791 23.1977 24.0852 23.6602 24.3703C24.7739 25.0568 25.5968 25.2701 27.2116 25.2701Z" fill="#77D13E"/>
<path d="M14.4888 0.890851C15.0542 1.07811 15.2732 1.73403 15.001 2.26382C14.4067 3.42061 13.7493 4.67801 12.9655 6.00103C12.7105 6.43151 12.1832 6.59886 11.6859 6.5441C10.6278 6.42762 9.50768 6.74088 8.61275 7.26697C7.42569 7.9648 6.43865 9.10822 5.81981 10.5024C5.20097 11.8966 4.98863 13.4553 5.21897 14.9129C5.4493 16.3705 6.10806 17.6368 7.08299 18.4961C8.05793 19.3554 9.28872 19.7545 10.5657 19.6254C11.8426 19.4963 13.0867 18.847 14.0859 17.7881C15.0851 16.7292 15.6082 15.5427 15.8761 14.0347L13.421 14.8395C12.3455 15.1921 11.1836 14.6318 10.7898 13.5707C10.377 12.4586 10.9635 11.2251 12.0866 10.8432L19.9871 8.15675C20.4208 8.00929 20.9001 8.15788 21.1744 8.5248L25.8676 14.8046C26.4873 15.6253 26.3936 16.7801 25.6497 17.4902C24.7805 18.3198 23.3843 18.2146 22.6493 17.2641L21.4468 15.7094L20.9436 15.0831C20.3592 17.7672 19.0764 20.2481 17.2795 22.1522C15.3519 24.1949 12.952 25.4475 10.4888 25.6965C8.02546 25.9456 5.65118 25.1757 3.77047 23.518C1.88976 21.8604 0.618972 19.4176 0.174644 16.6058C-0.269684 13.794 0.139936 10.7872 1.33371 8.09771C2.52748 5.40825 4.43154 3.20253 6.72147 1.85637C9.01139 0.510212 11.5455 0.106911 13.892 0.715183C14.0948 0.767752 14.2937 0.826232 14.4888 0.890851Z" fill="url(#paint0_linear_21005_8584)"/>
<defs>
<linearGradient id="paint0_linear_21005_8584" x1="13.1383" y1="0.438965" x2="13.1383" y2="25.7424" gradientUnits="userSpaceOnUse">
<stop stop-color="#5B79E1"/>
<stop offset="1" stop-color="#4362CC"/>
</linearGradient>
</defs>
</svg>
